<svg xmlns="http://www.w3.org/2000/svg" width="100px" height="147px" viewBox="0 0 258.2 380.4">
<path fill-rule="evenodd" clip-rule="evenodd" stroke="#231F20" stroke-width="0.216" stroke-miterlimit="10" d="M212.1,266.1
  c10.7,14,17.1,35.4,17.1,50.4c0,15-2.1,54.2-6,63.7h-3.2c-0.3-9.4-4-16.9-8.6-16.9c-3.4,0-6.3,4.2-7.7,10.4
  c-1.2-6.7-4.3-11.4-7.9-11.4c-4,0-7.5,6-8.4,14c-0.9-7.7-4.2-13.3-8.2-13.3c-4.5,0-8.3,7.6-8.5,17.2h-45.4
  c-0.5-8.9-4.1-15.8-8.4-15.8c-3.4,0-6.3,4.3-7.7,10.4c-1.2-6-3.7-10.4-6.8-11.2c-1.4,0.3-2.7,0.6-4,0.9c-2.7,2-4.8,6.9-5.5,13
  c-0.6-5-2.3-9.2-4.5-11.4c-2.7,0.3-5.4,0.5-8.1,0.6c-2.2,2.8-3.9,7.8-4.2,13.6h-5.2c-1.1-2.7-2-7.8-2.9-14
  c-5.7-0.6-10.9-1.8-15.8-3.5c-12.7-4.4-22.1-12.1-28.3-22.1c-6.1-9.8-8.9-21.6-8.1-34.3c0.9-15.6,7.1-32.5,18.8-48.7
  c1.8-2.5,3.4-5.2,4.7-7.9c6.6-14,5.6-29.9-0.1-44.6c-6-15.4-17-29.4-30.1-39c-17.3-12.5-8.9-31.5,11.9-16.6
  c16.3,11.7,29.9,29.1,37.2,48.1c7.6,19.7,8.7,41.3-0.5,60.8c-1.7,3.7-3.9,7.4-6.6,11.1c-9.4,13-14.3,26.1-15,37.9
  c-0.5,8.6,1.2,16.3,5,22.5c3.7,6,9.6,10.8,17.6,13.5c2.2,0.8,4.6,1.4,7.2,1.9c-0.8-11.2-1.2-22.2-1.2-28.9
  c0-15.2,6.7-37.2,17.9-51.3v-63.9c0-25.6,18.6-47.1,43-51.5c-0.4-0.9-0.8-1.8-1.1-2.7C70.1,143,36.6,106,36.6,80.6
  c0-25.5,1.8-31.9,17.8-43.6L45.6,0.4l24.8,27.1c18.9-9.2,42.9-14.8,68.9-14.8c26.1,0,50.1,5.5,69,14.8L223.9,7l-3.8,27
  c18.6,12,23.4,26.6,23.4,51.1c0,24.5-29.2,52.4-76.4,60.1c-0.2,1.4-0.6,2.9-1.3,4.2c25.9,3,46.3,25.1,46.3,51.9V266.1z"/>
<path fill-rule="evenodd" clip-rule="evenodd" fill="#FF6600" d="M145,114.5c-0.9-0.2-10.1-8.3-15.4-10.3c9.9-2.6,19.8-3.4,29.3,0.7
  C155.4,107.4,147.1,113.8,145,114.5z"/>
<path fill="#FFFFFF" d="M156.1,130.7c7,3,16.8,3.2,24.6,3.2c0,10.7-19.4,4.5-26.5,1.5c-4-1.7-7.4-4.1-9.5-7.5
  c-2.2,3.3-5.5,5.6-9.4,7.3c-7.1,3-26.4,9.2-26.4-1.5c7.8,0,17.5-0.3,24.5-3.2c13.6-5.7,2.4-16.5,11.5-16.5
  C153.6,114,142.5,125.1,156.1,130.7z"/>
<path fill-rule="evenodd" clip-rule="evenodd" fill="#FFFF00" d="M143,89.9c-9.5,14.1-33.9,22-60.9,18.1
  C49,103.5,24.5,83.2,27.4,62.9c0.3-2.3,0.9-4.5,1.9-6.6l55.4,7.8c-0.2,0.9-0.3,1.7-0.3,2.6c0,6.8,4.9,12.4,10.9,12.4
  c5.8,0,10.7-5.3,10.8-12l36.9,5.2l39.5-7.1c-0.6,1.5-0.9,3.2-0.9,4.9c0,6.8,4.8,12.5,10.8,12.5s10.9-5.6,10.9-12.5
  c0-3.1-1-6-2.7-8.1l55-9.8c1,2,1.7,4.2,2.2,6.4c3.6,20.2-20.2,41.4-53.1,47.2C177.8,110.7,153.1,103.8,143,89.9z"/>
</svg>
